<svg width="89" height="10" viewBox="0 0 89 10" fill="none" xmlns="http://www.w3.org/2000/svg">
<g id="Danske_Bank_Logo_White 2" clip-path="url(#clip0_0_30)">
<path id="Vector" d="M30.2646 9.22109C33.0313 9.22109 33.6842 8.50083 33.6842 6.98205C33.6842 5.46326 32.7949 5.04676 31.4796 4.94655L29.5788 4.80094C28.882 4.74457 28.6675 4.53163 28.6675 4.06973C28.6675 3.37296 28.9932 3.16942 30.3993 3.16942C31.5689 3.16942 31.8836 3.40585 31.9181 3.69864L31.9525 3.87871H33.4368C33.595 2.66367 33.2458 1.98883 30.4447 1.98883C27.8455 1.98883 27.1707 2.74196 27.1707 4.14802C27.1707 5.66681 28.1712 5.94864 29.3424 6.04885L31.2432 6.20699C31.94 6.26336 32.1889 6.38706 32.1889 7.02745C32.1889 7.83695 31.8633 8.0405 30.31 8.0405C28.9149 8.0405 28.7239 7.71482 28.6785 7.33121L28.6566 7.12923H27.1597C27.0141 8.38967 27.2834 9.22109 30.2646 9.22109Z" fill="white"/>
<path id="Vector_2" d="M82.0068 9.12088H83.4927V6.00502H84.4603L86.8669 9.12088H88.7677L85.7756 5.36305L88.655 2.08904H86.8559L84.4368 4.87923H83.4927V0.222656H82.0068V9.12088Z" fill="white"/>
<path id="Vector_3" d="M73.2369 9.11932H74.7213V3.54051C75.2944 3.33853 75.9817 3.23675 76.6112 3.23675C78.1409 3.23675 78.2756 3.69865 78.2756 5.18299V9.10836H79.7599V4.77746C79.7599 2.79677 79.1868 1.98727 77.1169 1.98727C76.1602 1.98727 75.238 2.32548 74.6414 2.68404L74.5397 2.08748H73.2354V9.11775L73.2369 9.11932Z" fill="white"/>
<path id="Vector_4" d="M67.6628 1.98884C65.0198 1.98884 64.5689 2.74197 64.6926 3.87871H66.2004L66.2458 3.67673C66.2912 3.41838 66.5151 3.1475 67.63 3.1475C69.3069 3.1475 69.5872 3.48571 69.5872 4.50815V4.87924H67.3372C65.0089 4.87924 64.334 5.37402 64.334 7.0165C64.334 8.65899 65.1216 9.22109 67.1007 9.22109C68.3377 9.22109 69.1816 8.89542 69.6999 8.44448L69.8346 9.11932H71.0605L71.0715 4.43926C71.0715 2.99876 70.846 1.98727 67.6628 1.98727V1.98884ZM69.5872 7.1856C69.5872 7.72579 68.6868 8.04051 67.5391 8.04051C66.5496 8.04051 65.8403 7.95126 65.8403 6.97109C65.8403 5.99093 66.3695 5.98153 67.5955 5.98153H69.5872V7.1856Z" fill="white"/>
<path id="Vector_5" d="M60.7422 4.67724C61.8116 4.47526 62.3847 3.82234 62.3847 2.76545C62.3847 1.02119 61.428 0.606262 59.8982 0.606262H55.2072V9.12244H59.5381C61.7317 9.12244 62.654 8.57129 62.654 6.69238C62.654 5.65741 62.2265 4.86983 60.7422 4.67881V4.67724ZM56.7604 1.89802H59.3471C60.1801 1.89802 60.8095 1.98726 60.8095 2.93298C60.8095 3.73152 60.5277 4.14802 59.2688 4.14802H56.7604V1.89802ZM59.4034 7.82756H56.7604V5.39749H59.5506C60.6639 5.39749 61.0804 5.75762 61.0804 6.65793C61.0804 7.68194 60.4948 7.82756 59.4034 7.82756Z" fill="white"/>
<path id="Vector_6" d="M50.0527 5.20647C50.0527 3.362 49.727 1.98883 46.7568 1.98883C44.1013 1.98883 43.3027 2.92202 43.3027 5.66681C43.3027 8.63706 44.1921 9.22109 46.8241 9.22109C49.9744 9.22109 50.0308 8.05146 49.94 7.2404H48.4776L48.4556 7.44238C48.3993 7.82443 48.2646 8.03893 46.8586 8.03893C45.2051 8.03893 44.8105 7.71326 44.8105 5.97996H50.0198C50.0418 5.74353 50.0543 5.45073 50.0543 5.20334L50.0527 5.20647ZM44.8544 4.87923C44.9436 3.75501 45.0689 3.14749 46.7333 3.14749C48.3977 3.14749 48.5449 3.78946 48.5449 4.87923H44.8544Z" fill="white"/>
<path id="Vector_7" d="M35.7604 9.12088H37.2448V6.00502H38.2124L40.6315 9.12088H42.5214L39.5292 5.36305L42.4087 2.08904H40.608L38.1905 4.87923H37.2448V0.222656H35.7604V9.12088Z" fill="white"/>
<path id="Vector_8" d="M18.5512 9.11932H20.0355V3.54051C20.6086 3.33853 21.2959 3.23675 21.9254 3.23675C23.4551 3.23675 23.5898 3.69865 23.5898 5.18299V9.10836H25.0741V4.77746C25.0741 2.79677 24.5011 1.98727 22.4311 1.98727C21.4744 1.98727 20.5522 2.32548 19.9556 2.68404L19.8539 2.08748H18.5496V9.11775L18.5512 9.11932Z" fill="white"/>
<path id="Vector_9" d="M12.977 1.98884C10.334 1.98884 9.88309 2.74197 10.0068 3.87871H11.5146L11.56 3.67673C11.6054 3.41838 11.8293 3.1475 12.9442 3.1475C14.6211 3.1475 14.9014 3.48571 14.9014 4.50815V4.87924H12.6514C10.3231 4.87924 9.64822 5.37402 9.64822 7.0165C9.64822 8.65899 10.4358 9.22109 12.4149 9.22109C13.6519 9.22109 14.4958 8.89542 15.0141 8.44448L15.1487 9.11932H16.3747L16.3857 4.43926C16.3857 2.99876 16.1602 1.98727 12.977 1.98727V1.98884ZM14.9014 7.1856C14.9014 7.72579 14.001 8.04051 12.8533 8.04051C11.8638 8.04051 11.1545 7.95126 11.1545 6.97109C11.1545 5.99093 11.6837 5.98153 12.9097 5.98153H14.9014V7.1856Z" fill="white"/>
<path id="Vector_10" d="M3.99269 0.603149H0V9.11933H4.02714C7.69415 9.11933 8.00887 6.9257 8.00887 4.85576C8.00887 2.57131 7.62683 0.603149 3.99269 0.603149ZM3.99269 7.81505H1.54071V1.90899H3.89248C6.10804 1.90899 6.38987 2.95492 6.38987 4.87924C6.38987 6.4544 6.25522 7.81505 3.99426 7.81505H3.99269Z" fill="white"/>
</g>
<defs>
<clipPath id="clip0_0_30">
<rect width="88.7677" height="9" fill="white" transform="translate(0 0.222656)"/>
</clipPath>
</defs>
</svg>
