<svg width="322" height="449" viewBox="0 0 322 449" fill="none" xmlns="http://www.w3.org/2000/svg">
<path fill-rule="evenodd" clip-rule="evenodd" d="M37.112 1.58101C20.209 6.12601 6.951 19.573 2.492 36.693C0.238996 45.341 0.238996 402.659 2.492 411.307C7.009 428.648 20.294 441.976 37.542 446.469C45.52 448.547 68.48 448.547 76.458 446.469C93.706 441.976 106.991 428.648 111.508 411.307C113.761 402.659 113.761 45.341 111.508 36.693C106.991 19.352 93.706 6.02401 76.458 1.53101C68.722 -0.483994 44.676 -0.453991 37.112 1.58101ZM245.112 1.58101C228.209 6.12601 214.951 19.573 210.492 36.693C208.239 45.341 208.239 402.659 210.492 411.307C215.009 428.648 228.294 441.976 245.542 446.469C253.52 448.547 276.48 448.547 284.458 446.469C301.706 441.976 314.991 428.648 319.508 411.307C321.761 402.659 321.761 45.341 319.508 36.693C314.991 19.352 301.706 6.02401 284.458 1.53101C276.722 -0.483994 252.676 -0.453991 245.112 1.58101Z" fill="white"/>
</svg>
