<svg width="426" height="386" viewBox="0 0 426 386" fill="none" xmlns="http://www.w3.org/2000/svg">
<path fill-rule="evenodd" clip-rule="evenodd" d="M289.5 1.42097C282.556 4.52997 276.982 13.373 277.022 21.218C277.067 30.095 282.622 37.257 293.864 42.931C316.321 54.267 340.694 76.614 355.565 99.5C406.367 177.685 385.398 282.383 308.571 334.137C303.659 337.445 297.041 341.465 293.864 343.069C290.686 344.673 286.421 347.447 284.386 349.234C274.769 357.678 274.654 371.73 284.128 380.689C288.48 384.804 291.812 386.004 298.815 385.981C303.67 385.964 305.832 385.255 313.617 381.121C332.708 370.986 350.682 357.296 366.609 340.761C396.725 309.493 415.23 272.924 423.667 228C425.084 220.454 425.451 213.256 425.451 193C425.451 166.464 424.752 159.83 419.956 140.89C415.076 121.617 405.236 98.147 395.27 82.009C375.155 49.439 343.403 19.818 311.244 3.62298C305.396 0.677977 302.969 0.00697744 298.275 0.0389774C295.099 0.0609774 291.15 0.682974 289.5 1.42097ZM183.5 26.876C181.3 27.883 158.125 46.541 132 68.338L84.5 107.968L59.288 107.984C35.985 107.999 33.637 108.163 28.288 110.147C15.575 114.864 6.201 124.289 1.959 136.618C0.114 141.981 0 145.267 0 193C0 240.733 0.114 244.019 1.959 249.382C6.201 261.711 15.575 271.136 28.288 275.853C33.637 277.837 35.985 278.001 59.288 278.016L84.5 278.032L131.931 317.584C158.018 339.337 180.681 357.818 182.293 358.652C183.906 359.486 187.537 360.39 190.363 360.662C197.249 361.326 205.178 357.389 209.494 351.164L212.5 346.828V193V39.172L209.494 34.836C205.811 29.524 197.531 24.99 191.571 25.022C189.332 25.034 185.7 25.868 183.5 26.876ZM289.5 109.569C282.049 113.437 277.061 121.116 277.022 128.782C276.996 133.794 278.684 138.227 283.014 144.521C287.806 151.485 292.742 162.077 295.217 170.702C298.445 181.953 298.445 204.047 295.217 215.298C292.742 223.923 287.806 234.515 283.014 241.479C276.672 250.697 275.423 257.932 278.865 265.509C280.82 269.812 286.682 275.548 290.676 277.067C294.992 278.708 303.771 278.158 308.042 275.979C313.318 273.287 319.681 264.97 326.328 252.078C335.71 233.88 339.764 218.903 340.724 198.888C341.804 176.382 337.7 156.988 327.522 136.5C320.123 121.606 313.738 112.927 308.042 110.021C303.183 107.543 293.844 107.315 289.5 109.569Z" fill="white"/>
</svg>
