<svg width="393" height="40" viewBox="0 0 393 40" fill="none" xmlns="http://www.w3.org/2000/svg">
<g clip-path="url(#clip0_34_2141)">
<path d="M133.99 39.8387C146.239 39.8387 149.13 36.6499 149.13 29.9258C149.13 23.2017 145.192 21.3578 139.369 20.9141L130.954 20.2695C127.869 20.0199 126.919 19.0771 126.919 17.0322C126.919 13.9474 128.361 13.0462 134.586 13.0462C139.765 13.0462 141.158 14.093 141.31 15.3893L141.463 16.1865H148.035C148.735 10.8072 147.189 7.81946 134.787 7.81946C123.28 7.81946 120.292 11.1538 120.292 17.3788C120.292 24.1029 124.722 25.3507 129.907 25.7943L138.323 26.4945C141.407 26.744 142.51 27.2917 142.51 30.1269C142.51 33.7107 141.068 34.6119 134.191 34.6119C128.015 34.6119 127.169 33.17 126.968 31.4717L126.871 30.5775H120.244C119.599 36.1578 120.791 39.8387 133.99 39.8387Z" fill="white"/>
<path d="M363.067 39.395H369.646V25.6001H373.93L384.585 39.395H393L379.753 22.758L392.501 8.26303H384.536L373.826 20.616H369.646V0H363.067V39.395Z" fill="white"/>
<path d="M324.241 39.3881H330.812V14.6891C333.35 13.7949 336.393 13.3443 339.179 13.3443C345.952 13.3443 346.548 15.3893 346.548 21.9609V39.3396H353.12V20.1655C353.12 11.3964 350.583 7.8125 341.418 7.8125C337.183 7.8125 333.1 9.30983 330.459 10.8973L330.008 8.25615H324.234V39.3812L324.241 39.3881Z" fill="white"/>
<path d="M299.563 7.81943C287.861 7.81943 285.865 11.1538 286.412 16.1864H293.088L293.289 15.2922C293.49 14.1484 294.481 12.9492 299.417 12.9492C306.841 12.9492 308.082 14.4465 308.082 18.9731V20.616H298.121C287.813 20.616 284.825 22.8066 284.825 30.0783C284.825 37.3501 288.312 39.8387 297.074 39.8387C302.55 39.8387 306.287 38.3968 308.581 36.4004L309.177 39.3881H314.605L314.654 18.6681C314.654 12.2906 313.655 7.8125 299.563 7.8125V7.81943ZM308.082 30.827C308.082 33.2185 304.096 34.6119 299.015 34.6119C294.634 34.6119 291.494 34.2168 291.494 29.8773C291.494 25.5378 293.837 25.4962 299.264 25.4962H308.082V30.827Z" fill="white"/>
<path d="M268.923 19.7218C273.657 18.8275 276.195 15.9368 276.195 11.2577C276.195 3.53536 271.959 1.69836 265.186 1.69836H244.418V39.4019H263.592C273.304 39.4019 277.387 36.9618 277.387 28.6433C277.387 24.0612 275.494 20.5744 268.923 19.7287V19.7218ZM251.295 7.41732H262.746C266.434 7.41732 269.221 7.81245 269.221 11.9994C269.221 15.5348 267.973 17.3787 262.4 17.3787H251.295V7.41732ZM262.996 33.6691H251.295V22.9105H263.648C268.576 22.9105 270.42 24.5049 270.42 28.4908C270.42 33.0244 267.828 33.6691 262.996 33.6691Z" fill="white"/>
<path d="M221.598 22.0649C221.598 13.8989 220.156 7.81946 207.006 7.81946C195.249 7.81946 191.713 11.951 191.713 24.1029C191.713 37.253 195.651 39.8387 207.304 39.8387C221.251 39.8387 221.501 34.6604 221.098 31.0696H214.624L214.527 31.9639C214.277 33.6553 213.681 34.605 207.456 34.605C200.136 34.605 198.389 33.1631 198.389 25.4893H221.452C221.549 24.4426 221.604 23.1463 221.604 22.051L221.598 22.0649ZM198.583 20.6161C198.978 15.6388 199.533 12.9492 206.902 12.9492C214.27 12.9492 214.922 15.7913 214.922 20.6161H198.583Z" fill="white"/>
<path d="M158.322 39.395H164.893V25.6001H169.177L179.887 39.395H188.254L175.007 22.758L187.755 8.26303H179.783L169.08 20.616H164.893V0H158.322V39.395Z" fill="white"/>
<path d="M82.1312 39.3881H88.7028V14.6891C91.2399 13.7949 94.2831 13.3443 97.0698 13.3443C103.842 13.3443 104.439 15.3893 104.439 21.9609V39.3396H111.01V20.1655C111.01 11.3964 108.473 7.8125 99.3089 7.8125C95.0734 7.8125 90.9904 9.30983 88.3493 10.8973L87.8987 8.25615H82.1243V39.3812L82.1312 39.3881Z" fill="white"/>
<path d="M57.4532 7.81943C45.7518 7.81943 43.7554 11.1538 44.303 16.1864H50.9786L51.1796 15.2922C51.3807 14.1484 52.372 12.9492 57.3076 12.9492C64.7318 12.9492 65.9727 14.4465 65.9727 18.9731V20.616H56.0113C45.7033 20.616 42.7156 22.8066 42.7156 30.0783C42.7156 37.3501 46.2024 39.8387 54.9646 39.8387C60.4409 39.8387 64.1773 38.3968 66.4718 36.4004L67.0679 39.3881H72.4958L72.5443 18.6681C72.5443 12.2906 71.5461 7.8125 57.4532 7.8125V7.81943ZM65.9727 30.827C65.9727 33.2185 61.9867 34.6119 56.9055 34.6119C52.5245 34.6119 49.3842 34.2168 49.3842 29.8773C49.3842 25.5378 51.7273 25.4962 57.1551 25.4962H65.9727V30.827Z" fill="white"/>
<path d="M17.6768 1.68445H0V39.388H17.8293C34.0642 39.388 35.4576 29.6762 35.4576 20.512C35.4576 10.3981 33.7661 1.68445 17.6768 1.68445ZM17.6768 33.6136H6.82116V7.4658H17.2331C27.042 7.4658 28.2898 12.0964 28.2898 20.6159C28.2898 27.5896 27.6936 33.6136 17.6837 33.6136H17.6768Z" fill="white"/>
</g>
<defs>
<clipPath id="clip0_34_2141">
<rect width="393" height="39.8456" fill="white"/>
</clipPath>
</defs>
</svg>
