<svg width="426" height="427" viewBox="0 0 426 427" fill="none" xmlns="http://www.w3.org/2000/svg">
<path fill-rule="evenodd" clip-rule="evenodd" d="M10.9071 2.32699C4.52108 5.69799 0.732077 11.561 0.202077 18.889C-0.0329234 22.133 0.324076 26.523 0.994076 28.644C1.99508 31.809 37.1141 67.424 196.857 227.272C330.262 360.765 392.779 422.666 395.566 424.022C401.291 426.807 409.431 426.662 415.093 423.673C421.479 420.302 425.268 414.439 425.798 407.111C426.549 396.74 425.766 395.559 402.807 372.394L381.889 351.289L388.257 341.894C405.814 315.994 417.016 287.574 423.166 253.333C425.195 242.035 425.472 237.27 425.485 213.5C425.497 191.896 425.133 184.302 423.662 175.5C417.996 141.597 406.797 112.073 389.998 86.754C377.516 67.941 372.755 64 362.508 64C355.366 64 351.39 65.708 346.871 70.716C340.042 78.285 339.169 88.158 344.603 96.365C346.196 98.771 350.561 105.283 354.302 110.836C388.12 161.027 392.826 237.185 365.698 295.238C362.161 302.808 353.657 317.454 351.349 319.95C351.12 320.198 345.824 315.306 339.58 309.08L328.228 297.76L334.444 291.63C344.871 281.348 353.332 264.839 358.668 244.364C361.332 234.145 361.5 232.282 361.5 213C361.5 193.718 361.332 191.855 358.668 181.636C353.756 162.789 345.815 146.572 336.336 136.029C330.642 129.696 327.021 127.994 319.282 128.016C309.463 128.044 301.444 134.413 298.842 144.25C297.12 150.76 298.687 156.141 305.003 165.409C315.041 180.139 319.111 193.87 319.111 213C319.111 232.415 314.445 247.459 303.702 262.685L299.338 268.87L288.169 257.669L277 246.469L276.978 131.484C276.957 22.427 276.862 16.293 275.135 12.491C273.18 8.18799 267.318 2.45199 263.324 0.932991C259.814 -0.401009 250.583 -0.219008 247.297 1.24999C245.759 1.93799 221.918 20.532 194.317 42.572C159.807 70.129 142.906 83.011 140.201 83.822C138.038 84.47 131.602 85 125.9 85H115.532L74.5161 44.044C46.6471 16.216 32.3081 2.59299 29.7821 1.54399C24.1921 -0.778009 16.1561 -0.444008 10.9071 2.32699ZM17.2381 105.386C12.6081 110.26 8.99908 115.277 6.62608 120.136C-0.186924 134.087 7.69224e-05 131.471 7.69224e-05 213C7.69224e-05 294.564 -0.194923 291.834 6.65908 306C11.7751 316.572 24.3761 329.029 35.3301 334.341C48.2411 340.602 51.5571 340.963 96.3841 340.983C124.06 340.995 137.472 341.361 140.201 342.178C142.906 342.989 159.807 355.871 194.317 383.428C221.918 405.468 245.759 424.063 247.297 424.75C250.583 426.219 259.814 426.401 263.324 425.067C267.318 423.548 273.18 417.812 275.135 413.509C276.765 409.92 276.958 406.354 276.978 379.499L277 349.497L151.249 223.749C82.0851 154.587 25.2171 98 24.8761 98C24.5341 98 21.0971 101.324 17.2381 105.386Z" fill="white"/>
</svg>
